<svg xmlns="http://www.w3.org/2000/svg" viewBox="0 0 64 64" fill="none">
  <rect width="64" height="64" rx="12" fill="#1a1a1a"/>
  <rect x="4" y="4" width="56" height="56" rx="8" fill="#2a2a2a"/>

  <!-- Waveform (Side A) -->
  <g transform="translate(8, 20)">
    <rect x="0" y="6" width="4" height="12" fill="#ff7e3e" rx="1"/>
    <rect x="6" y="3" width="4" height="18" fill="#ff7e3e" rx="1"/>
    <rect x="12" y="0" width="4" height="24" fill="#ff7e3e" rx="1"/>
    <rect x="18" y="4" width="4" height="16" fill="#ff7e3e" rx="1"/>
    <rect x="24" y="7" width="4" height="10" fill="#ff7e3e" rx="1"/>
  </g>

  <!-- Heart (Side B) -->
  <g transform="translate(32, 20)">
    <path d="M12 4C10.5 1.5 7 0 4.5 2C2 4 1.5 7 3 10C4 12 8 16 12 20C16 16 20 12 21 10C22.5 7 22 4 19.5 2C17 0 13.5 1.5 12 4Z"
          fill="#ec4899" stroke="#ec4899" stroke-width="1"/>
  </g>

  <!-- Flip arrows -->
  <g transform="translate(26, 48)">
    <path d="M0 4L6 0L6 8L0 4Z" fill="#e0e0e0"/>
    <path d="M12 4L6 0L6 8L12 4Z" fill="#e0e0e0"/>
  </g>

  <!-- i letter -->
  <text x="50" y="58" font-family="Arial, sans-serif" font-size="10" fill="#999999" font-style="italic">i</text>
</svg>
